<?xml version="1.0"?>
<svg width="200" height="200" xmlns="http://www.w3.org/2000/svg" xmlns:svg="http://www.w3.org/2000/svg">
 <!-- Created with SVG-edit - https://github.com/SVG-Edit/svgedit-->
 <g class="layer" transform="scale(0.300000,0.300000)">
  <title>Layer 1</title>
  <polygon cx="349" cy="348" fill="#eeeeee" id="svg_2" orient="point" point="5" points="501,362.1925964355469 502.1302795410156,365.4443054199219 505.5721130371094,365.5144348144531 502.828857421875,367.59423828125 503.8257141113281,370.8892822265625 501,368.9229736328125 498.1742858886719,370.8892822265625 499.171142578125,367.59423828125 496.4278869628906,365.5144348144531 499.8697204589844,365.4443054199219 501,362.1925964355469 502.1302795410156,365.4443054199219 " r="4.807402" r2="1.922961" shape="star" stroke-width="5" strokeWidth="5" transform="rotate(10.6688 501 366.541)"/>
  <polygon cx="186" cy="136" fill="#eeeeee" id="svg_3" orient="point" point="5" points="186,133.33333333333334 186.62697093577864,135.1370485393334 188.5361507101204,135.1759546816668 187.01446028404817,136.32961812733328 187.5674273394466,138.15737865166653 186,137.06666666666666 184.4325726605534,138.15737865166653 184.98553971595183,136.32961812733328 183.4638492898796,135.1759546816668 185.37302906422136,135.1370485393334 186,133.33333333333334 186.62697093577864,135.1370485393334 " r="2.666667" r2="1.066667" shape="star" stroke-width="5" strokeWidth="5" transform="rotate(8.2037 186 135.745)"/>
  <polygon cx="391" cy="246" fill="#eeeeee" id="svg_6" orient="point" point="5" points="391,243.59629914969068 391.5651439642939,245.22214606508248 393.2860553569109,245.2572155878609 391.91442214276435,246.29711376485562 392.4128599107347,247.94463483729376 391,246.96148034012373 389.5871400892653,247.94463483729376 390.08557785723565,246.29711376485562 388.7139446430891,245.2572155878609 390.4348560357061,245.22214606508248 391,243.59629914969068 391.5651439642939,245.22214606508248 " r="2.403701" r2="0.96148" shape="star" stroke-width="5" strokeWidth="5" transform="rotate(6.64005 391 245.77)"/>
  <polygon cx="251" cy="356" fill="#eeeeee" id="svg_7" orient="point" point="5" points="251,352.409890128577 251.84408545461284,354.8382160409382 254.41439738743242,354.89059503805703 252.36575895497296,356.4437619847772 253.11021363653208,358.9044598976545 251,357.4360439485692 248.88978636346792,358.9044598976545 249.63424104502704,356.4437619847772 247.58560261256758,354.89059503805703 250.15591454538716,354.8382160409382 251,352.409890128577 251.84408545461284,354.8382160409382 " r="3.59011" r2="1.436044" shape="star" stroke-width="5" strokeWidth="5" transform="rotate(8.53376 251 355.657)"/>
  <polygon cx="318" cy="48" fill="#eeeeee" id="svg_8" orient="point" point="5" points="318,47.333333333333336 318.15674273394467,47.78426213483335 318.6340376775301,47.7939886704167 318.25361507101206,48.08240453183332 318.39185683486164,48.53934466291663 318,48.266666666666666 317.60814316513836,48.53934466291663 317.74638492898794,48.08240453183332 317.3659623224699,47.7939886704167 317.84325726605533,47.78426213483335 318,47.333333333333336 318.15674273394467,47.78426213483335 " r="0.666667" r2="0.266667" shape="star" stroke-width="5" strokeWidth="5" transform="rotate(15.5765 318 47.9363)"/>
  <polygon cx="446" cy="444" fill="#eeeeee" id="svg_9" orient="point" point="5" points="446,440.6666666666667 446.7837136697233,442.92131067416676 449.1701883876505,442.96994335208353 447.2680753550602,444.4120226591666 447.95928417430827,446.69672331458315 446,445.3333333333333 444.04071582569173,446.69672331458315 444.7319246449398,444.4120226591666 442.8298116123495,442.96994335208353 445.2162863302767,442.92131067416676 446,440.6666666666667 446.7837136697233,442.92131067416676 " r="3.333333" r2="1.333333" shape="star" stroke-width="5" strokeWidth="5" transform="rotate(-32.1115 446 443.682)"/>
 </g>
</svg>